<?xml version="1.0" standalone="no"?>
<!DOCTYPE svg PUBLIC "-//W3C//DTD SVG 20010904//EN"
 "http://www.w3.org/TR/2001/REC-SVG-20010904/DTD/svg10.dtd">
<svg version="1.0" xmlns="http://www.w3.org/2000/svg"
 width="646.000000pt" height="186.000000pt" viewBox="0 0 646.000000 186.000000"
 preserveAspectRatio="xMidYMid meet">

<g transform="translate(0.000000,186.000000) scale(0.100000,-0.100000)"
fill="#000000" stroke="none">
<path d="M2500 1673 c-32 -11 -40 -37 -40 -127 0 -50 7 -163 15 -251 8 -88 15
-205 15 -261 0 -95 -1 -101 -22 -111 -13 -6 -53 -25 -89 -42 -94 -44 -113 -91
-58 -142 34 -32 80 -38 139 -18 25 9 34 9 40 -1 8 -13 16 -88 31 -290 12 -180
16 -195 54 -236 28 -29 39 -34 78 -34 38 0 49 4 59 22 17 32 13 141 -12 272
-14 75 -20 152 -20 242 l0 132 53 20 c28 11 81 31 117 45 244 92 261 99 270
121 11 29 3 65 -20 96 -28 38 -112 34 -204 -9 -75 -35 -227 -93 -232 -89 -6 7
-24 317 -24 421 0 62 -5 130 -11 151 -20 73 -79 110 -139 89z"/>
<path d="M3380 1671 c-80 -26 -128 -77 -157 -168 -20 -61 -22 -395 -4 -598
l13 -139 -36 -29 c-28 -23 -36 -36 -36 -62 0 -45 33 -84 79 -91 l37 -6 48
-161 c27 -89 54 -177 60 -196 14 -42 56 -78 101 -87 46 -8 99 21 103 58 2 15
-31 132 -72 259 -42 128 -76 241 -76 250 0 23 61 72 185 149 91 57 205 120
217 120 3 0 -3 -51 -13 -112 -55 -355 -61 -409 -54 -455 27 -179 138 -275 281
-243 120 27 269 205 304 362 10 46 11 75 1 144 -29 205 -146 331 -276 296 -39
-10 -41 -9 -68 23 -29 36 -85 60 -116 50 -14 -4 -21 2 -31 24 -13 33 -35 44
-91 44 -41 0 -109 -32 -265 -125 l-111 -66 -7 61 c-9 90 -7 341 4 427 13 99
30 122 106 137 63 12 84 31 84 73 0 45 -32 64 -113 67 -40 1 -83 -1 -97 -6z
m771 -882 c34 -34 49 -84 49 -159 0 -88 -25 -142 -106 -230 -46 -49 -62 -60
-83 -58 -35 4 -50 49 -50 154 -2 200 110 373 190 293z"/>
<path d="M810 1650 c-53 -9 -168 -59 -223 -97 -37 -26 -37 -26 -77 -8 -46 21
-105 14 -120 -15 -5 -10 -10 -43 -10 -72 l0 -53 -110 -95 c-60 -52 -112 -105
-116 -117 -17 -62 35 -110 109 -100 28 4 51 17 79 44 l39 38 -1 -200 c-1 -240
12 -453 39 -635 18 -120 23 -138 46 -157 19 -17 39 -23 70 -23 68 0 80 24 71
148 -3 53 -10 133 -16 177 -5 44 -13 121 -16 171 l-7 91 99 68 c128 88 216
158 334 264 117 105 155 150 190 224 l28 57 7 -257 c4 -142 5 -388 2 -548 -6
-276 -5 -292 14 -331 31 -65 105 -86 157 -47 l27 20 0 194 c-1 402 -17 1095
-27 1127 -18 59 -111 92 -169 61 -16 -8 -25 -7 -37 4 -71 62 -238 91 -382 67z
m194 -149 c56 -13 61 -22 46 -76 -23 -84 -85 -160 -199 -248 -226 -173 -266
-203 -278 -210 -10 -7 -13 32 -13 180 l0 189 80 53 c170 112 253 137 364 112z"/>
<path d="M1954 1297 c-91 -35 -147 -71 -213 -138 -126 -129 -199 -323 -226
-604 -25 -252 -21 -284 36 -304 128 -45 228 49 383 357 20 39 41 72 46 72 6 0
10 -29 10 -64 0 -93 38 -374 55 -407 20 -37 44 -49 99 -49 37 0 48 4 62 25 14
22 15 38 4 144 -6 66 -15 249 -20 408 -11 359 -33 504 -83 551 -35 32 -83 35
-153 9z m-35 -274 c-19 -159 -79 -306 -161 -395 l-48 -53 6 50 c23 190 72 319
156 410 27 30 51 55 52 55 1 0 -1 -30 -5 -67z"/>
<path d="M4858 1136 c-63 -58 -134 -130 -159 -162 l-44 -58 -2 35 c-10 133
-15 160 -36 179 -45 42 -127 45 -152 6 -12 -18 -11 -44 5 -181 10 -88 26 -254
35 -370 27 -345 30 -364 55 -390 30 -32 80 -48 111 -36 48 18 53 33 43 144 -5
56 -9 152 -9 212 0 103 2 114 32 177 58 122 183 269 331 386 66 52 66 102 -1
142 -62 38 -83 30 -209 -84z"/>
<path d="M5578 1121 c-26 -21 -51 -63 -148 -246 -23 -44 -45 -84 -49 -90 -3
-5 -8 49 -11 122 -5 130 -6 132 -35 163 -28 29 -34 31 -83 28 -36 -3 -60 -11
-73 -25 l-20 -20 20 -254 c11 -140 23 -312 26 -384 8 -173 11 -189 44 -224 25
-27 36 -31 78 -31 27 0 57 6 66 13 11 8 24 47 37 112 10 55 23 114 29 130 5
17 22 75 36 130 26 97 62 202 75 218 6 7 19 -122 36 -363 6 -92 30 -162 62
-179 34 -18 95 -23 122 -9 17 9 29 28 36 58 36 138 105 399 112 425 l9 30 6
-25 c20 -87 39 -182 63 -305 15 -83 33 -148 42 -159 43 -47 118 -60 152 -26
25 25 25 37 0 163 -11 56 -29 152 -41 212 -11 61 -29 153 -39 205 -10 52 -21
118 -24 145 -9 76 -33 139 -65 169 -33 31 -96 45 -129 27 -31 -16 -79 -135
-122 -298 -19 -73 -30 -49 -30 65 -1 128 -10 177 -43 210 -35 35 -103 41 -139
13z"/>
</g>
</svg>
